<?xml version="1.0" encoding="UTF-8" standalone="no"?>
<!DOCTYPE svg PUBLIC "-//W3C//DTD SVG 1.1//EN" "http://www.w3.org/Graphics/SVG/1.1/DTD/svg11.dtd">
<svg version="1.1" xmlns="http://www.w3.org/2000/svg" xmlns:xlink="http://www.w3.org/1999/xlink" preserveAspectRatio="xMidYMid meet" viewBox="0 0 1280 720" width="1280" height="720"><defs><path d="M1280 458.11L-21.4 458.11L-21.4 734.87L1280 734.87L1280 458.11Z" id="e2umqagNw"></path><path d="M320.49 205.94L0.66 0L640.34 0L1280 0L960.2 205.94L640.34 411.88L320.49 205.94Z" id="k3J0ed4Rv"></path><path d="M564.43 -112.96L300.71 27.99L300.71 -253.91L300.71 -535.8L564.43 -394.87L828.15 -253.91L564.43 -112.96Z" id="atsBGqG03"></path><path d="M921.97 280.01L1203.61 101.92L1203.61 458.11L1203.61 814.29L921.97 636.21L640.33 458.11L921.97 280.01Z" id="iL6TBvc9Y"></path><path d="M1175.95 0L1175.87 681.52L1279.96 681.52L1280.04 0.01L1175.95 0Z" id="c6f8LFAMww"></path><path d="M358.69 636.2L77.05 814.29L77.05 458.1L77.05 101.92L358.69 280L640.33 458.1L358.69 636.2Z" id="b1jfQVhoP1"></path><path d="M-21.33 0L-21.4 673.02L102.65 673.03L102.73 0.01L-21.33 0Z" id="a2Wk4Aku7"></path></defs><g><g><g><use xlink:href="#e2umqagNw" opacity="1" fill="#515151" fill-opacity="1"></use></g><g><use xlink:href="#k3J0ed4Rv" opacity="1" fill="#515151" fill-opacity="1"></use><g><use xlink:href="#k3J0ed4Rv" opacity="1" fill-opacity="0" stroke="#ffffff" stroke-width="14" stroke-opacity="0"></use></g></g><g><use xlink:href="#atsBGqG03" opacity="1" fill="#515151" fill-opacity="1"></use><g><use xlink:href="#atsBGqG03" opacity="1" fill-opacity="0" stroke="#ffffff" stroke-width="0" stroke-opacity="1"></use></g></g><g><use xlink:href="#iL6TBvc9Y" opacity="1" fill="#515151" fill-opacity="1"></use><g><use xlink:href="#iL6TBvc9Y" opacity="1" fill-opacity="0" stroke="#ffffff" stroke-width="0" stroke-opacity="1"></use></g></g><g><use xlink:href="#c6f8LFAMww" opacity="1" fill="#515151" fill-opacity="1"></use><g><use xlink:href="#c6f8LFAMww" opacity="1" fill-opacity="0" stroke="#b844fb" stroke-width="0" stroke-opacity="1"></use></g></g><g><use xlink:href="#b1jfQVhoP1" opacity="1" fill="#515151" fill-opacity="1"></use><g><use xlink:href="#b1jfQVhoP1" opacity="1" fill-opacity="0" stroke="#ffffff" stroke-width="0" stroke-opacity="1"></use></g></g><g><use xlink:href="#a2Wk4Aku7" opacity="1" fill="#515151" fill-opacity="1"></use><g><use xlink:href="#a2Wk4Aku7" opacity="1" fill-opacity="0" stroke="#b844fb" stroke-width="0" stroke-opacity="1"></use></g></g></g></g></svg>