<?xml version="1.0" encoding="UTF-8" standalone="no"?>
<!DOCTYPE svg PUBLIC "-//W3C//DTD SVG 1.1//EN" "http://www.w3.org/Graphics/SVG/1.1/DTD/svg11.dtd">
<svg version="1.1" xmlns="http://www.w3.org/2000/svg" xmlns:xlink="http://www.w3.org/1999/xlink" preserveAspectRatio="xMidYMid meet" viewBox="0 0 788 720" width="788" height="720"><defs><path d="M277.25 120.99C277.25 187.77 215.13 241.99 138.62 241.99C62.12 241.99 0 187.77 0 120.99C0 54.22 62.12 0 138.62 0C215.13 0 277.25 54.22 277.25 120.99Z" id="a2GqRV2z9q"></path><path d="M648.05 281.51L653.06 263.21L660.45 237.35L661.14 212.9L654.34 184.37L632.86 159.5L600.11 133.04L569.69 123.04L540.44 121.28L509.47 120.99" id="d2kzOTYRt"></path><path d="M15.5 110L28.5 93" id="b56NNMAQ8"></path><path d="M32.5 -39L32.5 -39L31.5 -39L32.5 -39Z" id="a27fbQTNn1"></path><path d="" id="c6AByVdtOE"></path><path d="M530.32 318.95L535.73 305.16L543.64 285.66L546.2 267.62L543.29 247.05L528.66 230.1L505.39 212.7L482.56 207.28L459.95 207.84L435.9 209.59" id="h76CAhBms"></path><path d="M87.2 104.96C103.23 95.16 124.04 98.8 135.8 113.45C219.2 217.42 448.85 503.67 532.25 607.64C543.16 621.23 539.65 641.31 524.77 650.4C507.67 660.85 484.4 675.08 467.3 685.53C451.27 695.33 430.45 691.69 418.7 677.03C335.29 573.07 105.65 286.81 22.24 182.85C11.34 169.26 14.85 149.17 29.72 140.08C46.82 129.63 70.09 115.41 87.2 104.96Z" id="c2qtsxfSI"></path><path d="" id="faxxcET2hJ"></path><path d="" id="c1HNsALQgo"></path><path d="M661.14 599.01C661.14 665.78 599.02 720 522.51 720C446.01 720 383.89 665.78 383.89 599.01C383.89 532.23 446.01 478.01 522.51 478.01C599.02 478.01 661.14 532.23 661.14 599.01Z" id="a1Wh8Nff25"></path><path d="M746.55 268.18L757.46 240.42L773.37 201.14L778.54 164.81L772.68 123.39L743.21 89.26L696.34 54.21L650.37 43.29L604.84 44.42L556.4 47.94" id="a13gspBwfP"></path></defs><g><g><g><use xlink:href="#a2GqRV2z9q" opacity="1" fill="#515151" fill-opacity="1"></use></g><g><use xlink:href="#d2kzOTYRt" opacity="1" fill="#000000" fill-opacity="0"></use><g><use xlink:href="#d2kzOTYRt" opacity="1" fill-opacity="0" stroke="#515151" stroke-width="15.12" stroke-opacity="1"></use></g></g><g><g><use xlink:href="#b56NNMAQ8" opacity="1" fill-opacity="0" stroke="#000000" stroke-width="0" stroke-opacity="1"></use></g></g><g><use xlink:href="#a27fbQTNn1" opacity="1" fill="#6b1e62" fill-opacity="1"></use></g><g><g><use xlink:href="#c6AByVdtOE" opacity="1" fill-opacity="0" stroke="#000000" stroke-width="37.8" stroke-opacity="1"></use></g></g><g><use xlink:href="#h76CAhBms" opacity="1" fill="#000000" fill-opacity="0"></use><g><use xlink:href="#h76CAhBms" opacity="1" fill-opacity="0" stroke="#515151" stroke-width="15.12" stroke-opacity="1"></use></g></g><g><use xlink:href="#c2qtsxfSI" opacity="1" fill="#515151" fill-opacity="1"></use></g><g><g><use xlink:href="#faxxcET2hJ" opacity="1" fill-opacity="0" stroke="#000000" stroke-width="37.8" stroke-opacity="1"></use></g></g><g><g><use xlink:href="#c1HNsALQgo" opacity="1" fill-opacity="0" stroke="#000000" stroke-width="38.93" stroke-opacity="1"></use></g></g><g><use xlink:href="#a1Wh8Nff25" opacity="1" fill="#515151" fill-opacity="1"></use></g><g><use xlink:href="#a13gspBwfP" opacity="1" fill="#000000" fill-opacity="0"></use><g><use xlink:href="#a13gspBwfP" opacity="1" fill-opacity="0" stroke="#515151" stroke-width="15.12" stroke-opacity="1"></use></g></g></g></g></svg>